<?xml version="1.0" encoding="utf-8"?>
<!-- Generator: Adobe Illustrator 24.1.0, SVG Export Plug-In . SVG Version: 6.00 Build 0)  -->
<svg version="1.1" id="Ebene_1" xmlns="http://www.w3.org/2000/svg" xmlns:xlink="http://www.w3.org/1999/xlink" x="0px" y="0px"
	 viewBox="0 0 198.43 141.73" style="enable-background:new 0 0 198.43 141.73;" xml:space="preserve">
<style type="text/css">
	.st0{fill:#7C7C7B;}
	.st1{fill:#009F5E;}
</style>
<circle class="st0" cx="96.88" cy="38.94" r="4.47"/>
<g>
	<path class="st1" d="M118.96,46.65H75.32c-1.32,0-2.39,1.08-2.39,2.39v0.12c0,1.31,1.08,2.39,2.39,2.39h2.83
		c-0.09,0.36-0.14,0.74-0.14,1.13V68.4c0,2.66,2.18,4.83,4.83,4.83h28.58c2.66,0,4.83-2.18,4.83-4.83V52.68
		c0-0.39-0.05-0.77-0.14-1.13h2.83c1.32,0,2.39-1.08,2.39-2.39v-0.12C121.35,47.72,120.27,46.65,118.96,46.65z"/>
	<path class="st1" d="M80.4,43.75h33.48c1.16,0,2.11-0.95,2.11-2.11v-0.69c0-1.16-0.95-2.11-2.11-2.11H80.4
		c-1.16,0-2.11,0.95-2.11,2.11v0.69C78.29,42.8,79.24,43.75,80.4,43.75z"/>
</g>
<g>
	<path class="st0" d="M30.45,111.22v-7.09h2.4c0.56,0,1.01,0.1,1.37,0.3c0.35,0.2,0.62,0.47,0.79,0.81s0.26,0.72,0.26,1.13
		c0,0.42-0.08,0.8-0.25,1.14c-0.17,0.34-0.43,0.61-0.78,0.81c-0.35,0.2-0.81,0.3-1.36,0.3h-1.72v-0.76h1.69
		c0.38,0,0.69-0.07,0.92-0.2c0.23-0.13,0.4-0.31,0.5-0.53c0.11-0.22,0.16-0.48,0.16-0.76c0-0.28-0.05-0.54-0.16-0.76
		c-0.1-0.22-0.27-0.4-0.51-0.53c-0.23-0.13-0.54-0.19-0.93-0.19h-1.51v6.33H30.45z"/>
	<path class="st0" d="M37.35,104.13v7.09h-0.82v-7.09H37.35z"/>
	<path class="st0" d="M40.41,111.35c-0.34,0-0.64-0.06-0.92-0.19c-0.27-0.13-0.49-0.31-0.65-0.56c-0.16-0.24-0.24-0.54-0.24-0.88
		c0-0.31,0.06-0.55,0.18-0.74c0.12-0.19,0.28-0.34,0.48-0.45c0.2-0.11,0.42-0.19,0.67-0.24c0.24-0.05,0.49-0.1,0.74-0.13
		c0.32-0.04,0.59-0.07,0.79-0.1c0.2-0.02,0.35-0.06,0.44-0.11c0.09-0.05,0.14-0.15,0.14-0.28v-0.03c0-0.34-0.09-0.61-0.28-0.8
		c-0.19-0.19-0.47-0.28-0.84-0.28c-0.39,0-0.7,0.09-0.92,0.26c-0.22,0.17-0.38,0.35-0.47,0.55l-0.78-0.28
		c0.14-0.32,0.32-0.58,0.56-0.76c0.23-0.18,0.49-0.31,0.76-0.38c0.28-0.07,0.55-0.11,0.82-0.11c0.17,0,0.37,0.02,0.59,0.06
		s0.44,0.12,0.65,0.25c0.21,0.12,0.38,0.31,0.52,0.56c0.14,0.25,0.21,0.59,0.21,1.01v3.5h-0.82v-0.72h-0.04
		c-0.06,0.12-0.15,0.24-0.28,0.37c-0.13,0.13-0.3,0.24-0.52,0.34C40.98,111.3,40.72,111.35,40.41,111.35z M40.53,110.61
		c0.32,0,0.6-0.06,0.82-0.19c0.22-0.13,0.39-0.29,0.51-0.49c0.11-0.2,0.17-0.41,0.17-0.63v-0.75c-0.03,0.04-0.11,0.08-0.23,0.11
		c-0.12,0.03-0.25,0.06-0.4,0.09c-0.15,0.02-0.3,0.04-0.44,0.06c-0.14,0.02-0.26,0.03-0.34,0.04c-0.21,0.03-0.41,0.07-0.59,0.13
		c-0.18,0.06-0.33,0.15-0.44,0.27c-0.11,0.12-0.17,0.29-0.17,0.49c0,0.28,0.11,0.5,0.32,0.64
		C39.94,110.54,40.21,110.61,40.53,110.61z"/>
	<path class="st0" d="M45.16,108.02v3.2h-0.82v-5.32h0.79v0.83h0.07c0.12-0.27,0.31-0.49,0.57-0.65c0.25-0.16,0.58-0.25,0.98-0.25
		c0.36,0,0.67,0.07,0.94,0.22c0.27,0.15,0.48,0.37,0.63,0.66c0.15,0.3,0.22,0.67,0.22,1.12v3.38h-0.82v-3.32
		c0-0.42-0.11-0.74-0.33-0.98c-0.22-0.23-0.51-0.35-0.89-0.35c-0.26,0-0.49,0.06-0.7,0.17c-0.2,0.11-0.37,0.28-0.48,0.49
		C45.22,107.45,45.16,107.72,45.16,108.02z"/>
	<path class="st0" d="M52.27,111.33c-0.51,0-0.95-0.11-1.32-0.34c-0.37-0.23-0.66-0.55-0.86-0.95c-0.2-0.41-0.3-0.89-0.3-1.43
		s0.1-1.02,0.3-1.44c0.2-0.42,0.48-0.74,0.84-0.98c0.36-0.23,0.78-0.35,1.26-0.35c0.28,0,0.55,0.05,0.82,0.14
		c0.27,0.09,0.52,0.24,0.74,0.45c0.22,0.21,0.4,0.48,0.53,0.82c0.13,0.34,0.2,0.76,0.2,1.25v0.35h-4.1v-0.71h3.27
		c0-0.3-0.06-0.57-0.18-0.8c-0.12-0.24-0.29-0.42-0.51-0.56c-0.22-0.14-0.47-0.2-0.77-0.2c-0.33,0-0.61,0.08-0.84,0.24
		c-0.24,0.16-0.42,0.37-0.55,0.63c-0.13,0.26-0.19,0.53-0.19,0.82v0.47c0,0.4,0.07,0.74,0.21,1.02c0.14,0.28,0.33,0.49,0.58,0.63
		c0.25,0.14,0.54,0.22,0.87,0.22c0.21,0,0.41-0.03,0.58-0.09c0.17-0.06,0.32-0.15,0.45-0.28c0.13-0.12,0.22-0.28,0.29-0.46
		l0.79,0.22c-0.08,0.27-0.22,0.5-0.42,0.7c-0.2,0.2-0.44,0.36-0.73,0.47C52.96,111.28,52.63,111.33,52.27,111.33z"/>
	<path class="st0" d="M56.54,108.02v3.2h-0.82v-5.32h0.79v0.83h0.07c0.12-0.27,0.31-0.49,0.57-0.65c0.25-0.16,0.58-0.25,0.98-0.25
		c0.36,0,0.67,0.07,0.94,0.22c0.27,0.15,0.48,0.37,0.63,0.66c0.15,0.3,0.22,0.67,0.22,1.12v3.38h-0.82v-3.32
		c0-0.42-0.11-0.74-0.33-0.98c-0.22-0.23-0.51-0.35-0.89-0.35c-0.26,0-0.49,0.06-0.7,0.17c-0.2,0.11-0.37,0.28-0.48,0.49
		C56.6,107.45,56.54,107.72,56.54,108.02z"/>
	<path class="st0" d="M66.16,109.2c-0.28,0-0.53-0.07-0.77-0.21c-0.23-0.14-0.41-0.32-0.55-0.55c-0.14-0.23-0.21-0.49-0.21-0.77
		c0-0.28,0.07-0.54,0.21-0.77c0.14-0.23,0.32-0.41,0.55-0.55c0.23-0.14,0.49-0.21,0.77-0.21c0.28,0,0.54,0.07,0.77,0.21
		c0.23,0.14,0.41,0.32,0.55,0.55c0.14,0.23,0.21,0.48,0.21,0.77c0,0.28-0.07,0.53-0.21,0.77c-0.14,0.23-0.32,0.42-0.55,0.55
		C66.7,109.13,66.44,109.2,66.16,109.2z"/>
	<path class="st0" d="M72.5,111.22v-7.09h4.28v0.76h-3.42v2.4h3.2v0.76h-3.2v2.41h3.47v0.76H72.5z"/>
	<path class="st0" d="M78.63,105.02c-0.16,0-0.3-0.05-0.41-0.16c-0.11-0.11-0.17-0.24-0.17-0.39c0-0.15,0.06-0.28,0.17-0.39
		c0.11-0.11,0.25-0.16,0.41-0.16c0.16,0,0.3,0.05,0.41,0.16c0.11,0.11,0.17,0.24,0.17,0.39c0,0.15-0.06,0.28-0.17,0.39
		C78.93,104.97,78.79,105.02,78.63,105.02z M78.22,111.22v-5.32h0.82v5.32H78.22z"/>
	<path class="st0" d="M81.35,108.02v3.2h-0.82v-5.32h0.79v0.83h0.07c0.12-0.27,0.31-0.49,0.57-0.65c0.25-0.16,0.58-0.25,0.98-0.25
		c0.36,0,0.67,0.07,0.94,0.22c0.27,0.15,0.48,0.37,0.63,0.66c0.15,0.3,0.22,0.67,0.22,1.12v3.38h-0.82v-3.32
		c0-0.42-0.11-0.74-0.33-0.98c-0.22-0.23-0.51-0.35-0.89-0.35c-0.26,0-0.49,0.06-0.7,0.17c-0.2,0.11-0.37,0.28-0.48,0.49
		C81.4,107.45,81.35,107.72,81.35,108.02z"/>
	<path class="st0" d="M86.23,111.22v-7.09h0.82v7.09H86.23z M86.99,109.28l-0.01-1.01h0.17l2.33-2.37h1.01L88,108.41h-0.07
		L86.99,109.28z M89.61,111.22l-2.08-2.63l0.58-0.57l2.53,3.2H89.61z"/>
	<path class="st0" d="M93.1,111.35c-0.34,0-0.64-0.06-0.92-0.19c-0.27-0.13-0.49-0.31-0.65-0.56c-0.16-0.24-0.24-0.54-0.24-0.88
		c0-0.31,0.06-0.55,0.18-0.74c0.12-0.19,0.28-0.34,0.48-0.45c0.2-0.11,0.42-0.19,0.67-0.24c0.24-0.05,0.49-0.1,0.74-0.13
		c0.32-0.04,0.59-0.07,0.79-0.1c0.2-0.02,0.35-0.06,0.44-0.11c0.09-0.05,0.14-0.15,0.14-0.28v-0.03c0-0.34-0.09-0.61-0.28-0.8
		c-0.19-0.19-0.47-0.28-0.84-0.28c-0.39,0-0.7,0.09-0.92,0.26c-0.22,0.17-0.38,0.35-0.47,0.55l-0.78-0.28
		c0.14-0.32,0.32-0.58,0.56-0.76c0.23-0.18,0.49-0.31,0.76-0.38c0.28-0.07,0.55-0.11,0.82-0.11c0.17,0,0.37,0.02,0.59,0.06
		c0.22,0.04,0.44,0.12,0.65,0.25c0.21,0.12,0.38,0.31,0.52,0.56c0.14,0.25,0.21,0.59,0.21,1.01v3.5h-0.82v-0.72h-0.04
		c-0.06,0.12-0.15,0.24-0.28,0.37c-0.13,0.13-0.3,0.24-0.52,0.34C93.67,111.3,93.41,111.35,93.1,111.35z M93.22,110.61
		c0.32,0,0.6-0.06,0.82-0.19c0.22-0.13,0.39-0.29,0.51-0.49c0.11-0.2,0.17-0.41,0.17-0.63v-0.75c-0.03,0.04-0.11,0.08-0.23,0.11
		c-0.12,0.03-0.25,0.06-0.4,0.09c-0.15,0.02-0.3,0.04-0.44,0.06c-0.14,0.02-0.26,0.03-0.34,0.04c-0.21,0.03-0.41,0.07-0.59,0.13
		c-0.18,0.06-0.33,0.15-0.44,0.27c-0.11,0.12-0.17,0.29-0.17,0.49c0,0.28,0.11,0.5,0.32,0.64C92.63,110.54,92.9,110.61,93.22,110.61
		z"/>
	<path class="st0" d="M100.38,109.05v-3.14h0.82v5.32h-0.82v-0.9h-0.06c-0.12,0.27-0.32,0.5-0.58,0.69c-0.26,0.19-0.6,0.28-1,0.28
		c-0.33,0-0.63-0.07-0.89-0.22c-0.26-0.15-0.46-0.37-0.61-0.66c-0.15-0.3-0.22-0.67-0.22-1.12v-3.38h0.82v3.32
		c0,0.39,0.11,0.7,0.33,0.93c0.22,0.23,0.5,0.35,0.84,0.35c0.2,0,0.41-0.05,0.62-0.16c0.21-0.1,0.39-0.26,0.53-0.48
		C100.31,109.65,100.38,109.38,100.38,109.05z"/>
	<path class="st0" d="M105.06,105.91v0.69h-2.87v-0.69H105.06z M103.05,111.22v-6.05c0-0.3,0.07-0.56,0.21-0.76
		c0.14-0.2,0.33-0.36,0.56-0.46c0.23-0.1,0.47-0.15,0.72-0.15c0.2,0,0.36,0.02,0.49,0.05c0.13,0.03,0.22,0.06,0.28,0.09l-0.24,0.71
		c-0.04-0.01-0.1-0.03-0.17-0.05c-0.07-0.02-0.17-0.03-0.29-0.03c-0.27,0-0.46,0.07-0.58,0.2c-0.12,0.14-0.18,0.34-0.18,0.6v5.86
		H103.05z"/>
	<path class="st0" d="M108.22,111.33c-0.51,0-0.95-0.11-1.32-0.34c-0.37-0.23-0.66-0.55-0.86-0.95c-0.2-0.41-0.3-0.89-0.3-1.43
		s0.1-1.02,0.3-1.44c0.2-0.42,0.48-0.74,0.84-0.98c0.36-0.23,0.78-0.35,1.26-0.35c0.28,0,0.55,0.05,0.82,0.14
		c0.27,0.09,0.52,0.24,0.74,0.45c0.22,0.21,0.4,0.48,0.53,0.82c0.13,0.34,0.2,0.76,0.2,1.25v0.35h-4.1v-0.71h3.27
		c0-0.3-0.06-0.57-0.18-0.8c-0.12-0.24-0.29-0.42-0.5-0.56c-0.22-0.14-0.47-0.2-0.77-0.2c-0.33,0-0.61,0.08-0.84,0.24
		c-0.24,0.16-0.42,0.37-0.55,0.63s-0.19,0.53-0.19,0.82v0.47c0,0.4,0.07,0.74,0.21,1.02c0.14,0.28,0.33,0.49,0.58,0.63
		c0.25,0.14,0.54,0.22,0.87,0.22c0.21,0,0.41-0.03,0.58-0.09c0.17-0.06,0.32-0.15,0.45-0.28c0.13-0.12,0.23-0.28,0.29-0.46
		l0.79,0.22c-0.08,0.27-0.22,0.5-0.42,0.7c-0.2,0.2-0.44,0.36-0.73,0.47C108.9,111.28,108.58,111.33,108.22,111.33z"/>
	<path class="st0" d="M112.48,108.02v3.2h-0.82v-5.32h0.79v0.83h0.07c0.13-0.27,0.31-0.49,0.57-0.65c0.25-0.16,0.58-0.25,0.98-0.25
		c0.36,0,0.67,0.07,0.94,0.22c0.27,0.15,0.48,0.37,0.63,0.66c0.15,0.3,0.22,0.67,0.22,1.12v3.38h-0.82v-3.32
		c0-0.42-0.11-0.74-0.33-0.98c-0.22-0.23-0.51-0.35-0.89-0.35c-0.26,0-0.49,0.06-0.7,0.17c-0.2,0.11-0.37,0.28-0.48,0.49
		C112.54,107.45,112.48,107.72,112.48,108.02z"/>
	<path class="st0" d="M122.1,109.2c-0.28,0-0.53-0.07-0.77-0.21c-0.23-0.14-0.41-0.32-0.55-0.55c-0.14-0.23-0.21-0.49-0.21-0.77
		c0-0.28,0.07-0.54,0.21-0.77c0.14-0.23,0.32-0.41,0.55-0.55c0.23-0.14,0.49-0.21,0.77-0.21c0.28,0,0.54,0.07,0.77,0.21
		c0.23,0.14,0.41,0.32,0.55,0.55c0.14,0.23,0.21,0.48,0.21,0.77c0,0.28-0.07,0.53-0.21,0.77c-0.14,0.23-0.32,0.42-0.55,0.55
		C122.64,109.13,122.38,109.2,122.1,109.2z"/>
	<path class="st0" d="M128.44,111.22v-7.09h0.86v3.52h0.08l3.18-3.52h1.12l-2.98,3.2l2.98,3.89h-1.04l-2.46-3.29l-0.89,1v2.3H128.44
		z"/>
	<path class="st0" d="M136.46,111.33c-0.48,0-0.9-0.11-1.26-0.34c-0.36-0.23-0.64-0.55-0.84-0.96c-0.2-0.41-0.3-0.89-0.3-1.44
		c0-0.55,0.1-1.04,0.3-1.45c0.2-0.41,0.48-0.73,0.84-0.96c0.36-0.23,0.78-0.34,1.26-0.34c0.48,0,0.9,0.11,1.26,0.34
		c0.36,0.23,0.64,0.55,0.84,0.96c0.2,0.41,0.3,0.9,0.3,1.45c0,0.55-0.1,1.03-0.3,1.44c-0.2,0.41-0.48,0.73-0.84,0.96
		C137.36,111.22,136.94,111.33,136.46,111.33z M136.46,110.6c0.36,0,0.66-0.09,0.9-0.28c0.24-0.19,0.41-0.43,0.52-0.74
		c0.11-0.31,0.17-0.63,0.17-0.99c0-0.36-0.06-0.69-0.17-0.99c-0.11-0.31-0.29-0.55-0.52-0.74c-0.24-0.19-0.54-0.28-0.9-0.28
		c-0.36,0-0.66,0.09-0.9,0.28c-0.24,0.19-0.41,0.44-0.52,0.74c-0.11,0.31-0.17,0.64-0.17,0.99c0,0.35,0.06,0.68,0.17,0.99
		c0.11,0.3,0.29,0.55,0.52,0.74C135.79,110.51,136.09,110.6,136.46,110.6z"/>
	<path class="st0" d="M142.27,111.33c-0.5,0-0.93-0.12-1.29-0.35c-0.36-0.24-0.64-0.56-0.83-0.97c-0.19-0.41-0.29-0.88-0.29-1.41
		c0-0.54,0.1-1.02,0.3-1.43c0.2-0.41,0.48-0.74,0.84-0.97c0.36-0.23,0.78-0.35,1.26-0.35c0.37,0,0.71,0.07,1.01,0.21
		c0.3,0.14,0.55,0.33,0.74,0.58c0.19,0.25,0.31,0.54,0.36,0.87h-0.82c-0.06-0.24-0.2-0.46-0.41-0.64c-0.21-0.19-0.5-0.28-0.86-0.28
		c-0.32,0-0.6,0.08-0.84,0.25s-0.42,0.4-0.56,0.7c-0.13,0.3-0.2,0.65-0.2,1.05c0,0.41,0.06,0.77,0.2,1.07
		c0.13,0.3,0.31,0.54,0.55,0.71c0.24,0.17,0.52,0.25,0.84,0.25c0.21,0,0.41-0.04,0.58-0.11c0.17-0.07,0.32-0.18,0.44-0.32
		s0.21-0.31,0.26-0.5h0.82c-0.05,0.31-0.16,0.6-0.34,0.85c-0.18,0.25-0.42,0.45-0.72,0.6C143.01,111.26,142.67,111.33,142.27,111.33
		z"/>
	<path class="st0" d="M146.37,108.02v3.2h-0.82v-7.09h0.82v2.6h0.07c0.12-0.28,0.31-0.49,0.56-0.66c0.25-0.16,0.58-0.24,1-0.24
		c0.36,0,0.68,0.07,0.95,0.22c0.27,0.14,0.48,0.36,0.64,0.66c0.15,0.3,0.23,0.67,0.23,1.13v3.38H149v-3.32
		c0-0.42-0.11-0.75-0.33-0.98c-0.22-0.23-0.52-0.35-0.91-0.35c-0.27,0-0.51,0.06-0.72,0.17c-0.21,0.11-0.38,0.28-0.5,0.49
		C146.43,107.45,146.37,107.72,146.37,108.02z"/>
	<path class="st0" d="M153.54,111.33c-0.51,0-0.95-0.11-1.32-0.34c-0.37-0.23-0.66-0.55-0.86-0.95c-0.2-0.41-0.3-0.89-0.3-1.43
		s0.1-1.02,0.3-1.44c0.2-0.42,0.48-0.74,0.84-0.98c0.36-0.23,0.78-0.35,1.26-0.35c0.28,0,0.55,0.05,0.82,0.14
		c0.27,0.09,0.52,0.24,0.74,0.45c0.22,0.21,0.4,0.48,0.53,0.82c0.13,0.34,0.2,0.76,0.2,1.25v0.35h-4.1v-0.71h3.27
		c0-0.3-0.06-0.57-0.18-0.8c-0.12-0.24-0.29-0.42-0.5-0.56c-0.22-0.14-0.47-0.2-0.77-0.2c-0.33,0-0.61,0.08-0.84,0.24
		c-0.24,0.16-0.42,0.37-0.55,0.63c-0.13,0.26-0.19,0.53-0.19,0.82v0.47c0,0.4,0.07,0.74,0.21,1.02c0.14,0.28,0.33,0.49,0.58,0.63
		c0.25,0.14,0.54,0.22,0.87,0.22c0.21,0,0.41-0.03,0.58-0.09c0.17-0.06,0.32-0.15,0.45-0.28c0.13-0.12,0.23-0.28,0.29-0.46
		l0.79,0.22c-0.08,0.27-0.22,0.5-0.42,0.7c-0.2,0.2-0.44,0.36-0.73,0.47C154.23,111.28,153.9,111.33,153.54,111.33z"/>
	<path class="st0" d="M157.81,108.02v3.2h-0.82v-5.32h0.79v0.83h0.07c0.13-0.27,0.31-0.49,0.57-0.65c0.25-0.16,0.58-0.25,0.98-0.25
		c0.36,0,0.67,0.07,0.94,0.22c0.27,0.15,0.48,0.37,0.63,0.66c0.15,0.3,0.22,0.67,0.22,1.12v3.38h-0.82v-3.32
		c0-0.42-0.11-0.74-0.33-0.98c-0.22-0.23-0.51-0.35-0.89-0.35c-0.26,0-0.49,0.06-0.7,0.17c-0.2,0.11-0.37,0.28-0.48,0.49
		C157.87,107.45,157.81,107.72,157.81,108.02z"/>
</g>
<g>
	<path class="st0" d="M14.95,87.39h1.94v7.61c0,0.7-0.15,1.3-0.44,1.8c-0.29,0.5-0.7,0.89-1.22,1.16c-0.52,0.27-1.13,0.4-1.82,0.4
		c-0.63,0-1.2-0.11-1.71-0.34s-0.91-0.56-1.2-1.01c-0.3-0.45-0.44-1-0.44-1.67h1.95c0,0.29,0.07,0.54,0.19,0.76
		c0.13,0.21,0.3,0.37,0.52,0.49c0.22,0.11,0.48,0.17,0.77,0.17c0.31,0,0.58-0.07,0.8-0.2c0.22-0.13,0.38-0.33,0.5-0.59
		c0.11-0.26,0.17-0.58,0.18-0.96V87.39z"/>
	<path class="st0" d="M24.1,94.79v-4.7h1.91v8.11h-1.85v-1.44h-0.08c-0.18,0.45-0.48,0.83-0.9,1.11c-0.42,0.29-0.93,0.43-1.54,0.43
		c-0.53,0-1-0.12-1.41-0.36c-0.41-0.24-0.72-0.58-0.95-1.04c-0.23-0.46-0.34-1.01-0.34-1.66v-5.17h1.91v4.87
		c0,0.51,0.14,0.92,0.42,1.23c0.28,0.3,0.65,0.45,1.11,0.45c0.28,0,0.55-0.07,0.82-0.21c0.26-0.14,0.48-0.34,0.65-0.62
		S24.1,95.21,24.1,94.79z"/>
	<path class="st0" d="M27.98,98.21v-8.11h1.83v1.38h0.1c0.17-0.47,0.45-0.83,0.84-1.09c0.39-0.26,0.86-0.39,1.4-0.39
		c0.55,0,1.01,0.13,1.39,0.4c0.38,0.27,0.65,0.63,0.8,1.09h0.08c0.18-0.45,0.48-0.81,0.91-1.08c0.43-0.27,0.94-0.4,1.52-0.4
		c0.75,0,1.36,0.24,1.83,0.71c0.47,0.47,0.71,1.16,0.71,2.06v5.45h-1.92v-5.15c0-0.5-0.13-0.87-0.4-1.11
		c-0.27-0.23-0.59-0.35-0.98-0.35c-0.46,0-0.82,0.14-1.08,0.43c-0.26,0.29-0.39,0.66-0.39,1.12v5.06h-1.88v-5.23
		c0-0.42-0.13-0.75-0.38-1c-0.25-0.25-0.58-0.37-0.99-0.37c-0.27,0-0.52,0.07-0.75,0.21c-0.23,0.14-0.4,0.33-0.54,0.59
		c-0.13,0.25-0.2,0.54-0.2,0.88v4.93H27.98z"/>
	<path class="st0" d="M41.33,98.21v-8.11h1.83v1.38h0.1c0.17-0.47,0.45-0.83,0.84-1.09c0.39-0.26,0.86-0.39,1.4-0.39
		c0.55,0,1.01,0.13,1.39,0.4c0.38,0.27,0.65,0.63,0.8,1.09h0.08c0.18-0.45,0.48-0.81,0.91-1.08c0.43-0.27,0.94-0.4,1.52-0.4
		c0.75,0,1.36,0.24,1.83,0.71c0.47,0.47,0.71,1.16,0.71,2.06v5.45h-1.92v-5.15c0-0.5-0.13-0.87-0.4-1.11
		c-0.27-0.23-0.59-0.35-0.98-0.35c-0.46,0-0.82,0.14-1.08,0.43c-0.26,0.29-0.39,0.66-0.39,1.12v5.06H46.1v-5.23
		c0-0.42-0.13-0.75-0.38-1c-0.25-0.25-0.58-0.37-0.99-0.37c-0.27,0-0.52,0.07-0.75,0.21c-0.23,0.14-0.4,0.33-0.54,0.59
		c-0.13,0.25-0.2,0.54-0.2,0.88v4.93H41.33z"/>
	<path class="st0" d="M55.58,101.25c-0.26,0-0.5-0.02-0.72-0.06s-0.4-0.09-0.53-0.14l0.44-1.49c0.28,0.08,0.53,0.12,0.74,0.12
		c0.22,0,0.41-0.07,0.58-0.2c0.17-0.13,0.31-0.35,0.43-0.66l0.16-0.44l-2.94-8.28h2.03l1.87,6.13h0.08l1.88-6.13h2.03l-3.25,9.09
		c-0.15,0.43-0.35,0.8-0.6,1.11s-0.56,0.54-0.92,0.71C56.51,101.17,56.08,101.25,55.58,101.25z"/>
	<path class="st0" d="M71.56,92.01v1.57h-4.87v-1.57H71.56z"/>
	<path class="st0" d="M81.02,98.21h-3.67V87.39h3.74c1.07,0,2,0.22,2.77,0.65c0.77,0.43,1.37,1.05,1.78,1.86
		c0.42,0.81,0.62,1.77,0.62,2.89c0,1.13-0.21,2.09-0.63,2.9c-0.42,0.81-1.02,1.43-1.8,1.86C83.06,97.99,82.12,98.21,81.02,98.21z
		 M79.31,96.51h1.61c0.75,0,1.38-0.14,1.89-0.41c0.5-0.28,0.88-0.69,1.14-1.24c0.25-0.55,0.38-1.24,0.38-2.07s-0.13-1.52-0.38-2.06
		c-0.25-0.55-0.63-0.96-1.12-1.23c-0.49-0.27-1.11-0.41-1.84-0.41h-1.67V96.51z"/>
	<path class="st0" d="M91.63,98.36c-0.81,0-1.52-0.17-2.11-0.51c-0.59-0.34-1.04-0.82-1.36-1.45c-0.32-0.62-0.48-1.36-0.48-2.21
		c0-0.83,0.16-1.57,0.48-2.2c0.32-0.63,0.77-1.12,1.34-1.48c0.57-0.35,1.25-0.53,2.02-0.53c0.5,0,0.97,0.08,1.42,0.24
		c0.45,0.16,0.84,0.41,1.18,0.74c0.34,0.33,0.61,0.76,0.81,1.28c0.2,0.52,0.3,1.13,0.3,1.84v0.59h-6.65v-1.29h4.82
		c0-0.37-0.08-0.69-0.24-0.98s-0.37-0.51-0.65-0.68c-0.28-0.17-0.6-0.25-0.96-0.25c-0.39,0-0.73,0.09-1.03,0.28
		c-0.3,0.19-0.53,0.44-0.69,0.74c-0.16,0.31-0.25,0.64-0.25,1v1.12c0,0.47,0.09,0.88,0.26,1.21c0.17,0.34,0.41,0.59,0.72,0.77
		c0.31,0.18,0.67,0.27,1.09,0.27c0.28,0,0.53-0.04,0.76-0.12c0.23-0.08,0.42-0.2,0.59-0.35s0.29-0.35,0.38-0.58l1.79,0.2
		c-0.11,0.47-0.33,0.88-0.64,1.23c-0.32,0.35-0.72,0.62-1.21,0.81C92.82,98.27,92.26,98.36,91.63,98.36z"/>
	<path class="st0" d="M97.82,88.94c-0.3,0-0.56-0.1-0.78-0.31c-0.22-0.2-0.33-0.45-0.33-0.73c0-0.29,0.11-0.53,0.33-0.73
		c0.22-0.2,0.48-0.3,0.78-0.3c0.31,0,0.57,0.1,0.78,0.31c0.22,0.2,0.32,0.45,0.32,0.73s-0.11,0.53-0.32,0.73
		S98.12,88.94,97.82,88.94z M96.86,98.21v-8.11h1.91v8.11H96.86z"/>
	<path class="st0" d="M102.64,93.45v4.75h-1.91v-8.11h1.83v1.38h0.09c0.19-0.45,0.49-0.81,0.9-1.08c0.41-0.27,0.92-0.4,1.52-0.4
		c0.56,0,1.05,0.12,1.47,0.36c0.42,0.24,0.74,0.59,0.97,1.04s0.34,1.01,0.34,1.65v5.16h-1.91v-4.87c0-0.54-0.14-0.97-0.42-1.27
		c-0.28-0.31-0.67-0.46-1.16-0.46c-0.33,0-0.63,0.07-0.89,0.22s-0.46,0.36-0.61,0.63C102.72,92.73,102.64,93.06,102.64,93.45z"/>
	<path class="st0" d="M113.39,98.36c-0.81,0-1.52-0.17-2.1-0.51c-0.59-0.34-1.04-0.82-1.36-1.45c-0.32-0.62-0.47-1.36-0.47-2.21
		c0-0.83,0.16-1.57,0.48-2.2c0.32-0.63,0.77-1.12,1.34-1.48c0.57-0.35,1.25-0.53,2.02-0.53c0.5,0,0.97,0.08,1.42,0.24
		c0.45,0.16,0.84,0.41,1.18,0.74c0.34,0.33,0.61,0.76,0.81,1.28c0.2,0.52,0.3,1.13,0.3,1.84v0.59h-6.65v-1.29h4.82
		c0-0.37-0.08-0.69-0.24-0.98s-0.37-0.51-0.65-0.68c-0.28-0.17-0.6-0.25-0.96-0.25c-0.39,0-0.73,0.09-1.03,0.28
		c-0.3,0.19-0.53,0.44-0.69,0.74c-0.16,0.31-0.25,0.64-0.25,1v1.12c0,0.47,0.09,0.88,0.26,1.21c0.17,0.34,0.41,0.59,0.72,0.77
		c0.31,0.18,0.67,0.27,1.09,0.27c0.28,0,0.53-0.04,0.76-0.12s0.42-0.2,0.59-0.35c0.17-0.16,0.29-0.35,0.37-0.58l1.79,0.2
		c-0.11,0.47-0.33,0.88-0.64,1.23c-0.31,0.35-0.72,0.62-1.21,0.81C114.58,98.27,114.02,98.36,113.39,98.36z"/>
	<path class="st0" d="M122.39,98.21V87.39h1.96v4.97h0.13l4.22-4.97h2.39l-4.18,4.85l4.22,5.96h-2.36l-3.23-4.64l-1.2,1.41v3.22
		H122.39z"/>
	<path class="st0" d="M135.32,98.36c-0.79,0-1.48-0.17-2.06-0.52c-0.58-0.35-1.03-0.84-1.35-1.46c-0.32-0.63-0.48-1.36-0.48-2.2
		c0-0.84,0.16-1.57,0.48-2.2c0.32-0.63,0.77-1.12,1.35-1.47c0.58-0.35,1.27-0.52,2.06-0.52c0.79,0,1.48,0.17,2.06,0.52
		c0.58,0.35,1.03,0.84,1.35,1.47c0.32,0.63,0.48,1.36,0.48,2.2c0,0.84-0.16,1.57-0.48,2.2c-0.32,0.63-0.77,1.11-1.35,1.46
		C136.8,98.19,136.11,98.36,135.32,98.36z M135.33,96.83c0.43,0,0.79-0.12,1.08-0.36c0.29-0.24,0.5-0.56,0.65-0.96
		c0.14-0.4,0.21-0.85,0.21-1.34c0-0.5-0.07-0.95-0.21-1.35c-0.14-0.4-0.36-0.72-0.65-0.96c-0.29-0.24-0.65-0.36-1.08-0.36
		c-0.44,0-0.81,0.12-1.1,0.36c-0.29,0.24-0.51,0.56-0.65,0.96c-0.14,0.4-0.21,0.85-0.21,1.35c0,0.49,0.07,0.94,0.21,1.34
		c0.14,0.4,0.36,0.72,0.65,0.96C134.53,96.71,134.89,96.83,135.33,96.83z"/>
	<path class="st0" d="M144.36,98.36c-0.81,0-1.5-0.18-2.08-0.53c-0.58-0.36-1.03-0.85-1.34-1.48c-0.31-0.63-0.47-1.35-0.47-2.17
		c0-0.82,0.16-1.55,0.47-2.18c0.32-0.63,0.77-1.12,1.34-1.48c0.58-0.35,1.26-0.53,2.06-0.53c0.66,0,1.24,0.12,1.75,0.36
		c0.51,0.24,0.91,0.58,1.22,1.02c0.3,0.44,0.48,0.95,0.52,1.53h-1.83c-0.07-0.39-0.25-0.72-0.53-0.98
		c-0.28-0.26-0.64-0.39-1.11-0.39c-0.39,0-0.73,0.11-1.03,0.31c-0.3,0.21-0.53,0.51-0.69,0.9c-0.16,0.39-0.25,0.86-0.25,1.41
		c0,0.55,0.08,1.03,0.24,1.42s0.39,0.7,0.68,0.91c0.29,0.21,0.64,0.32,1.04,0.32c0.28,0,0.53-0.05,0.76-0.16
		c0.22-0.11,0.41-0.26,0.56-0.47c0.15-0.2,0.26-0.45,0.31-0.74h1.83c-0.05,0.57-0.21,1.08-0.51,1.52s-0.69,0.79-1.19,1.04
		C145.63,98.24,145.04,98.36,144.36,98.36z"/>
	<path class="st0" d="M151.32,93.45v4.75h-1.91V87.39h1.87v4.08h0.09c0.19-0.46,0.48-0.82,0.89-1.09c0.4-0.27,0.91-0.4,1.53-0.4
		c0.56,0,1.05,0.12,1.47,0.35c0.42,0.24,0.74,0.58,0.97,1.03c0.23,0.45,0.35,1.01,0.35,1.66v5.16h-1.91v-4.87
		c0-0.55-0.14-0.97-0.42-1.27c-0.28-0.31-0.67-0.46-1.18-0.46c-0.34,0-0.64,0.07-0.91,0.22c-0.27,0.15-0.47,0.36-0.62,0.63
		C151.4,92.73,151.32,93.06,151.32,93.45z"/>
	<path class="st0" d="M160.86,98.37c-0.51,0-0.98-0.09-1.39-0.28c-0.41-0.18-0.73-0.46-0.97-0.82c-0.24-0.36-0.36-0.81-0.36-1.34
		c0-0.46,0.08-0.84,0.25-1.14c0.17-0.3,0.4-0.54,0.69-0.72c0.29-0.18,0.62-0.32,0.99-0.41c0.37-0.09,0.75-0.16,1.14-0.2
		c0.47-0.05,0.86-0.09,1.16-0.13c0.3-0.04,0.51-0.1,0.65-0.19c0.14-0.09,0.2-0.22,0.2-0.4V92.7c0-0.4-0.12-0.71-0.35-0.92
		c-0.24-0.22-0.58-0.33-1.02-0.33c-0.47,0-0.84,0.1-1.11,0.31c-0.27,0.2-0.46,0.45-0.55,0.72l-1.79-0.25
		c0.14-0.49,0.37-0.91,0.7-1.24c0.32-0.33,0.72-0.58,1.19-0.75c0.47-0.17,0.99-0.25,1.55-0.25c0.39,0,0.78,0.05,1.17,0.14
		c0.39,0.09,0.74,0.24,1.06,0.45c0.32,0.21,0.58,0.49,0.77,0.85s0.29,0.81,0.29,1.35v5.43h-1.84v-1.11h-0.06
		c-0.12,0.22-0.28,0.44-0.49,0.63c-0.21,0.2-0.47,0.35-0.79,0.47C161.65,98.31,161.28,98.37,160.86,98.37z M161.36,96.96
		c0.38,0,0.72-0.08,1-0.23c0.28-0.15,0.5-0.36,0.65-0.61c0.15-0.25,0.23-0.53,0.23-0.83v-0.96c-0.06,0.05-0.16,0.1-0.3,0.14
		c-0.14,0.04-0.3,0.08-0.48,0.11c-0.18,0.03-0.35,0.06-0.52,0.08c-0.17,0.02-0.32,0.05-0.45,0.06c-0.29,0.04-0.54,0.1-0.77,0.19
		c-0.23,0.09-0.4,0.21-0.53,0.37c-0.13,0.16-0.2,0.36-0.2,0.61c0,0.35,0.13,0.62,0.39,0.8C160.63,96.87,160.96,96.96,161.36,96.96z"
		/>
	<path class="st0" d="M167.07,101.25V90.09h1.88v1.34h0.11c0.1-0.2,0.24-0.41,0.42-0.63c0.18-0.22,0.42-0.42,0.73-0.58
		c0.31-0.16,0.7-0.24,1.17-0.24c0.63,0,1.19,0.16,1.7,0.48c0.5,0.32,0.91,0.79,1.2,1.41c0.3,0.62,0.45,1.38,0.45,2.28
		c0,0.89-0.15,1.65-0.44,2.27c-0.29,0.62-0.69,1.1-1.19,1.43c-0.5,0.33-1.07,0.49-1.71,0.49c-0.47,0-0.85-0.08-1.16-0.23
		c-0.31-0.16-0.55-0.34-0.74-0.56c-0.18-0.22-0.33-0.43-0.43-0.63h-0.08v4.32H167.07z M168.95,94.15c0,0.52,0.07,0.98,0.22,1.38
		c0.15,0.39,0.37,0.7,0.65,0.92c0.28,0.22,0.63,0.33,1.03,0.33c0.42,0,0.78-0.11,1.06-0.34c0.29-0.23,0.5-0.54,0.65-0.94
		c0.15-0.4,0.22-0.85,0.22-1.35c0-0.5-0.07-0.95-0.22-1.34c-0.15-0.39-0.36-0.7-0.64-0.92c-0.29-0.22-0.64-0.33-1.07-0.33
		c-0.41,0-0.76,0.11-1.04,0.32c-0.29,0.21-0.5,0.52-0.65,0.9C169.02,93.17,168.95,93.63,168.95,94.15z"/>
	<path class="st0" d="M176.36,101.25V90.09h1.88v1.34h0.11c0.1-0.2,0.24-0.41,0.42-0.63c0.18-0.22,0.42-0.42,0.73-0.58
		c0.31-0.16,0.7-0.24,1.17-0.24c0.63,0,1.19,0.16,1.7,0.48c0.5,0.32,0.91,0.79,1.2,1.41c0.3,0.62,0.45,1.38,0.45,2.28
		c0,0.89-0.15,1.65-0.44,2.27c-0.29,0.62-0.69,1.1-1.19,1.43c-0.5,0.33-1.07,0.49-1.71,0.49c-0.47,0-0.85-0.08-1.16-0.23
		c-0.31-0.16-0.55-0.34-0.74-0.56c-0.18-0.22-0.33-0.43-0.43-0.63h-0.08v4.32H176.36z M178.24,94.15c0,0.52,0.07,0.98,0.22,1.38
		c0.15,0.39,0.37,0.7,0.65,0.92c0.28,0.22,0.63,0.33,1.03,0.33c0.42,0,0.78-0.11,1.06-0.34c0.29-0.23,0.5-0.54,0.65-0.94
		c0.15-0.4,0.22-0.85,0.22-1.35c0-0.5-0.07-0.95-0.22-1.34c-0.15-0.39-0.36-0.7-0.64-0.92c-0.29-0.22-0.64-0.33-1.07-0.33
		c-0.41,0-0.76,0.11-1.04,0.32s-0.5,0.52-0.65,0.9C178.31,93.17,178.24,93.63,178.24,94.15z"/>
</g>
</svg>
