<?xml version="1.0" encoding="utf-8"?>
<!-- Svg Vector Icons : http://www.onlinewebfonts.com/icon -->
<!DOCTYPE svg PUBLIC "-//W3C//DTD SVG 1.1//EN" "http://www.w3.org/Graphics/SVG/1.1/DTD/svg11.dtd">
<svg version="1.1" xmlns="http://www.w3.org/2000/svg" xmlns:xlink="http://www.w3.org/1999/xlink" x="0px" y="0px"
	  viewBox="0 0 1000 1000" enable-background="new 0 0 1000 1000" xml:space="preserve">
<metadata> Svg Vector Icons : http://www.onlinewebfonts.com/icon </metadata>
	<g><g transform="translate(0.000000,511.000000) scale(0.100000,-0.100000)"><path d="M2285.7,4908.6c-134.8-162.4-196.1-327.9-196.1-536.3c0-226.8,55.2-383.1,232.9-652.7c260.5-392.2,281.9-619,85.8-873.4c-113.4-150.2-125.7-196.1-67.4-254.3c61.3-61.3,137.9-39.8,226.8,64.3c134.8,159.4,196.1,324.8,196.1,533.2c0,232.9-55.2,380-251.3,680.3c-245.2,373.9-260.5,591.4-67.4,848.9c113.4,147.1,125.6,193.1,67.4,251.3C2451.2,5031.2,2374.5,5009.8,2285.7,4908.6z"/><path
		d="M3143.7,4908.6c-134.8-159.3-196.1-327.9-196.1-533.2c0-236,55.2-389.2,226.8-649.6c266.6-395.3,288-622.1,91.9-879.5c-113.4-150.2-125.7-196.1-67.4-254.3c61.3-61.3,137.9-39.8,226.8,64.3c134.8,159.4,196.1,324.8,196.1,533.2c0,226.8-55.2,383.1-232.9,652.7c-260.5,392.2-281.9,619-85.8,873.4c113.4,150.2,125.6,196.1,67.4,254.3C3309.2,5031.2,3232.6,5009.8,3143.7,4908.6z"/><path
		d="M6453.3,4908.6c-134.8-159.3-196.1-327.9-196.1-533.2c0-236,55.2-389.2,226.8-649.6c266.6-395.3,288.1-622.1,91.9-879.5c-113.4-150.2-125.6-196.1-67.4-254.3c61.3-61.3,137.9-39.8,226.8,64.3c134.8,156.3,196.1,324.8,196.1,530.2c0,239-52.1,383.1-242.1,674.2c-254.3,383.1-272.7,600.6-76.6,858c113.4,147.1,125.7,193.1,67.4,251.3C6618.8,5031.2,6542.1,5009.8,6453.3,4908.6z"/><path
		d="M7311.3,4908.6c-134.9-159.3-196.1-327.9-196.1-533.2c0-239,52.1-383.1,242.1-674.2c254.3-383.1,272.7-600.6,76.6-858c-113.4-147.1-125.7-193.1-67.4-251.3c61.3-61.3,137.9-39.8,226.7,64.3c134.8,159.4,196.1,324.8,196.1,533.2c0,232.9-55.1,380-251.3,680.3c-245.1,373.9-260.5,591.4-67.4,848.9c113.4,147.1,125.7,193.1,67.4,251.3C7476.8,5031.2,7400.2,5009.8,7311.3,4908.6z"/><path
		d="M4213.2,2739c-104.2-64.4-193.1-202.3-193.1-306.4c0-177.7,202.3-367.7,392.2-367.7c95,0,98.1-6.1,98.1-122.6v-119.5l-1293.2-9.2c-1274.8-9.2-1299.3-9.2-1446.4-79.7c-315.7-144-557.7-419.8-649.7-732.4l-46-162.4H732c-386.1,0-499.5-39.8-588.4-211.4c-58.2-116.5-58.2-196.1,0-312.6C232.5,143.5,345.9,103.6,732,103.6h343.2l9.2-2028.7l9.2-2031.7l82.7-174.7c104.2-226.7,343.2-465.8,570-570l174.7-82.7h3079.7h3079.7l174.7,82.7c226.7,104.2,465.8,343.2,570,570l82.7,174.7l9.2,2031.7l9.2,2028.7h337.1c380,0,484.2,33.7,579.2,193.1c76.6,125.6,76.6,223.7,0,349.4c-95,159.3-199.2,193.1-579.2,193.1h-337.1l-46,162.4c-91.9,312.6-334,588.4-649.6,732.4c-147.1,70.5-171.6,70.5-1443.4,79.7l-1296.2,9.2v119.5c0,116.4,6.1,122.6,91.9,122.6c196.1,0,398.4,186.9,398.4,367.7c0,107.3-104.2,263.5-211.4,321.8c-73.6,36.8-217.6,46-775.3,46C4369.5,2800.3,4302.1,2794.2,4213.2,2739z M5717.8,2487.7c24.5-39.8,24.5-70.5,0-107.3c-30.6-49-104.2-55.2-701.7-64.3c-686.4-6.1-750.8,3.1-750.8,113.4c0,119.5,52.1,125.6,747.7,119.5C5613.6,2539.8,5687.2,2533.7,5717.8,2487.7z M5245.9,1942.3v-122.6h-245.2h-245.2v122.6v122.6h245.2h245.2V1942.3z M8095.8,1525.5c226.8-67.4,444.3-278.9,521-502.6l58.2-168.5l-3665.1-9.2c-2016.4-3.1-3671.2,0-3677.3,6.1c-36.7,36.8,128.7,358.5,245.2,471.9c269.7,263.5,46,248.2,3395.4,251.3C7590.2,1574.5,7951.8,1568.4,8095.8,1525.5z M9640.3,526.5c24.5-39.8,24.5-70.5,0-107.3c-33.7-52.1-291.1-55.2-4624.2-64.3c-3367.8-3.1-4599.7,3.1-4630.3,27.6c-52.1,42.9-55.2,125.6-6.1,174.7c27.6,27.6,1084.8,33.7,4630.3,30.6C9349.2,578.6,9606.6,575.5,9640.3,526.5z M8678.1-1851.5c0-2261.5,9.2-2181.9-257.4-2445.4c-269.7-272.7-64.3-257.4-3419.9-257.4c-3355.5,0-3150.2-15.3-3419.9,257.4c-266.6,263.5-257.4,183.9-257.4,2445.4V103.6h3677.3h3677.3V-1851.5z"/></g></g>
</svg>
