<?xml version="1.0" encoding="utf-8"?>
<!-- Generator: Adobe Illustrator 24.1.0, SVG Export Plug-In . SVG Version: 6.00 Build 0)  -->
<svg version="1.1" id="Ebene_1" xmlns="http://www.w3.org/2000/svg" xmlns:xlink="http://www.w3.org/1999/xlink" x="0px" y="0px"
	 viewBox="0 0 141.73 141.73" style="enable-background:new 0 0 141.73 141.73;" xml:space="preserve">
<style type="text/css">
	.st0{fill:#7C7C7B;}
	.st1{fill:#009F5E;}
</style>
<circle class="st0" cx="70.24" cy="35.43" r="10.61"/>
<g>
	<path class="st1" d="M122.7,53.75H19.03c-3.12,0-5.68,2.56-5.68,5.68v0.3c0,3.12,2.56,5.68,5.68,5.68h6.73
		c-0.21,0.86-0.33,1.76-0.33,2.68v37.34c0,6.32,5.17,11.48,11.48,11.48h67.91c6.32,0,11.48-5.17,11.48-11.48V68.09
		c0-0.92-0.12-1.82-0.33-2.68h6.73c3.12,0,5.68-2.56,5.68-5.68v-0.3C128.38,56.3,125.83,53.75,122.7,53.75z"/>
	<path class="st1" d="M31.1,46.87h79.53c2.76,0,5.01-2.26,5.01-5.01v-1.63c0-2.76-2.26-5.01-5.01-5.01H31.1
		c-2.76,0-5.01,2.26-5.01,5.01v1.63C26.09,44.62,28.34,46.87,31.1,46.87z"/>
</g>
</svg>
